<svg xmlns="http://www.w3.org/2000/svg" version="1.1" shape-rendering="geometricPrecision" text-rendering="geometricPrecision" image-rendering="optimizeQuality" fill-rule="evenodd" clip-rule="evenodd" viewBox="0 0 4794 2196">
  <path fill="#020202" d="M4486.5 13.5c21-.167 42 0 63 .5 35.21 3.838 66.21 17.171 93 40 16.02 14.344 30.19 30.177 42.5 47.5 14.84 23.527 23.51 49.194 26 77 22.03 419.665 44.03 839.33 66 1259 11.69 88.11-19.81 155.61-94.5 202.5-23 12.92-47.67 20.25-74 22a3444.01 3444.01 0 00-85 5c26.49 42.67 37.32 89.17 32.5 139.5-1.83 61.05-4.5 122.05-8 183-6.39 31.77-19.05 60.77-38 87-5.04 5.38-9.71 11.04-14 17-13.83 12.5-27.67 25-41.5 37.5-9.22 4.87-18.22 10.2-27 16-28.82 13.44-59.15 20.6-91 21.5-99-3.74-198-7.41-297-11-9 .31-18 .64-27 1-636.33-23.51-1272.67-47.01-1909-70.5-48.24-3.63-90.24-21.63-126-54a365.185 365.185 0 01-42.5-48.5c-5.99-11.3-11.99-22.64-18-34-10.3-27.36-15.14-55.69-14.5-85 .57-21.01 1.23-42.01 2-63a3420860.43 3420860.43 0 00-1600 83.5c-90.613 11.61-159.113-21.56-205.5-99.5-10.684-20.73-17.017-42.73-19-66-22.07-419.33-44.07-838.663-66-1258C2.313 375.394 33.813 307.894 108.5 261c23.005-12.918 47.671-20.251 74-22 1434.84-74.878 2869.51-150.044 4304-225.5z" opacity="1"/>
  <path fill="#fefefe" d="M3488.5 1532.5c.67-.77 1.51-1.43 2.5-2 .68-45.02.01-90.02-2-135-4.03-110.03-8.7-220.03-14-330-1.67-22.36-3.5-44.69-5.5-67 1.79-.285 3.45.048 5 1 3 9.01 6.84 17.68 11.5 26 25.2 44.52 51.2 88.52 78 132a3601.274 3601.274 0 00204 287c20.12 24.46 40.62 48.63 61.5 72.5 1.67.67 3.33.67 5 0l5-5 18-6c6.97-4.68 14.64-8.01 23-10 2.86-.93 5.19-2.6 7-5 9.48-1.38 18.15-4.71 26-10 7.14-1.93 14.14-4.27 21-7 1.96-.95 3.62-2.29 5-4 7.13-1.53 14.13-3.53 21-6 2.63-.89 4.8-2.39 6.5-4.5 6.89-1.96 13.73-4.13 20.5-6.5a32.58 32.58 0 0011.5-8.5c1.02-17.51-.32-34.84-4-52-1.12-7.31-3.12-14.31-6-21a703.044 703.044 0 00-10-83 7.379 7.379 0 00-2-3c-3.75-33.03-7.75-66.03-12-99-.66-5.02-.5-10.02.5-15a1061.02 1061.02 0 01-13.5-124c-3.49-61.644-6.49-123.31-9-185-.85-31.532-.35-63.032 1.5-94.5a78.133 78.133 0 01-2-10.5 1572.5 1572.5 0 00-.5-112c-3.49-3.547-7.66-4.714-12.5-3.5a781.598 781.598 0 01-78 29 338.482 338.482 0 00-49 13c-8.99 1.406-17.99 2.74-27 4-12.9 2.723-19.9 10.557-21 23.5 5.97 98.28 10.8 196.613 14.5 295 .67 42.67.67 85.33 0 128l-3 3a3086.334 3086.334 0 01-127-185 4226.016 4226.016 0 01-86-152 2232.79 2232.79 0 01-28-57 279.412 279.412 0 01-12-19 97.476 97.476 0 00-7-21 1074.176 1074.176 0 00-20-39c-2.24-.637-4.58-.97-7-1a1148.604 1148.604 0 00-91.5 9.5 3503.513 3503.513 0 01-57 16c-9.07 2.128-17.4 5.795-25 11-7.17.93-14.17 2.596-21 5-2.65 1.153-4.65 2.987-6 5.5-11.18.43-20.34 4.764-27.5 13-1.7 2.4-2.53 5.067-2.5 8a2578.443 2578.443 0 0122 181.5c-.1 3.692-.43 7.359-1 11 5.25 42.346 8.75 84.85 10.5 127.5 3.03 65.17 4.53 130.33 4.5 195.5 1.68 4.6 2.52 9.43 2.5 14.5 4.31 71.5 4.48 143 .5 214.5-.19 3.26.47 6.26 2 9a74.472 74.472 0 00-.5 20.5c9.33 4.46 19.16 7.29 29.5 8.5 23.12.62 46.12 2.62 69 6 19.97 2.81 39.97 5.48 60 8 7.53 1.21 14.86 2.71 22 4.5-169.33-6.43-338.66-12.77-508-19 70.13-50.33 120.63-116 151.5-197 9.92-26.09 17.59-52.76 23-80 6.22-6.36 13.72-10.53 22.5-12.5 11.14-2.8 22.47-4.3 34-4.5 2.1-4.42 3.27-9.08 3.5-14 2.72-43.02 5.72-86.02 9-129 .99-9.76 2.49-19.42 4.5-29a25.482 25.482 0 00-4-4.5c-8.89-1.56-16.89.44-24 6-18.42.82-36.08 4.82-53 12-10.15.8-20.15 2.47-30 5l-2 2a373.415 373.415 0 00-58 16c-10.45.89-20.79 2.56-31 5-3.21.27-5.88 1.61-8 4a358.55 358.55 0 00-44 12 687.16 687.16 0 00-29 6 38.845 38.845 0 00-14 6c-9.71 1.61-19.38 3.61-29 6-9.73 4.75-20.06 7.75-31 9a58.187 58.187 0 00-16 6c-8.58 2.37-17.25 4.37-26 6a79.675 79.675 0 00-19 8c-10.54.8-20.54 3.47-30 8-1.2.9-2.03 2.07-2.5 3.5-.33 35.67-.67 71.33-1 107a616.234 616.234 0 00-2 51c1.91 3.51 4.74 4.68 8.5 3.5 4.92-2.2 9.92-4.2 15-6a6573.22 6573.22 0 01173-44.5c-.49 8.28-2.99 15.94-7.5 23-19.68 25.35-43.85 45.18-72.5 59.5-.56 1.68-1.56 3.01-3 4a328.275 328.275 0 00-32 12c-16.39 3.48-32.72 7.15-49 11-71.55-.56-118.72-34.72-141.5-102.5-6.47-19.98-9.64-40.48-9.5-61.5.54-76.66 25.71-143.83 75.5-201.5 31.6-36.609 68.77-66.109 111.5-88.5 34.15-17.73 70.15-30.397 108-38a1220.62 1220.62 0 0197-3 272.694 272.694 0 0037 8 849.551 849.551 0 0131 10 38.276 38.276 0 002.5-6.5c.81-6.364 1.81-12.697 3-19 2.07-51.575 8.4-102.575 19-153 .67-3.333.67-6.667 0-10-.83-2.167-2.33-3.667-4.5-4.5a73.503 73.503 0 01-11-2c-2.25-.624-3.92-1.957-5-4a108.362 108.362 0 01-18-4 14.639 14.639 0 01-6-4c-16-2.867-32-5.867-48-9a1121.94 1121.94 0 00-67 0 1019.407 1019.407 0 01-62 5 423.002 423.002 0 00-62 16 36.04 36.04 0 00-7 4 231.97 231.97 0 00-21 4c-51.66 21.962-99.66 50.295-144 85-4.04 3.7-7.7 7.7-11 12a81.664 81.664 0 00-13 8c-40.82 40.242-76.99 84.075-108.5 131.5a491.408 491.408 0 01-30 59c-.72 4.9-2.06 9.56-4 14-1 1.67-2.33 3-4 4a779.24 779.24 0 01-21 59 418.65 418.65 0 01-13 56 2051.14 2051.14 0 01-10.5 86.5c.24 1.98.91 3.82 2 5.5a500.498 500.498 0 001.5 78c3.9 23.49 8.57 46.83 14 70 8.9 26.13 20.23 51.13 34 75a481.854 481.854 0 0027.5 36c-35.35-1.11-70.68-2.44-106-4-1.56-9.31-3.06-18.65-4.5-28-1.3-4.85-2.96-9.52-5-14-1.67-20.7-3.67-41.36-6-62-.81-6.36-1.81-12.7-3-19-.26-2.12-1.26-3.78-3-5-4.44-35.64-8.61-71.3-12.5-107 .23-2.85.57-5.68 1-8.5-2.44-12.8-4.61-25.64-6.5-38.5-6.61-70.17-11.28-140.5-14-211-.62-92.066-1.46-184.066-2.5-276-1.6.188-2.94-.312-4-1.5a25.238 25.238 0 00-10 0 995.331 995.331 0 01-69 26 112.894 112.894 0 01-28 6 265.528 265.528 0 01-31 10c-9.41.826-18.75 2.16-28 4-7.68 2.412-13.18 7.246-16.5 14.5a168.41 168.41 0 000 26c5.48 90.282 9.81 180.616 13 271 .67 44.67.67 89.33 0 134-.69.86-1.52 1.52-2.5 2a2466.996 2466.996 0 01-131.5-191 6599.526 6599.526 0 01-76-134 1706.88 1706.88 0 01-35-70 156.414 156.414 0 01-11-18 320.84 320.84 0 00-27.5-59.5 1191.827 1191.827 0 00-97 9 2015.084 2015.084 0 00-73 21 31.34 31.34 0 00-9 5.5 323.887 323.887 0 01-19 4.5c-4.07 1.361-7.4 3.695-10 7-11.14.153-19.97 4.653-26.5 13.5a12.984 12.984 0 00-1.5 6c4.42 29.935 8.42 59.935 12 90-31.63.041-62.3 5.374-92 16a176.833 176.833 0 00-11-15 648.308 648.308 0 0030-15.5c13.68-7.938 25.52-18.105 35.5-30.5 12.64-19.066 12.64-38.066 0-57a134.409 134.409 0 00-20.5-18.5c22.85-10.49 45.52-21.49 68-33 45.94-23.917 86.77-54.75 122.5-92.5 23.9-26.128 40.23-56.461 49-91 7.24-36.753 1.57-71.42-17-104-16.15-26.833-36.65-49.999-61.5-69.5-38.7-28.688-80.7-51.688-126-69-50.53-19.509-102.53-33.842-156-43-171.93-28.482-342.59-22.816-512 17-86.104 19.926-167.104 52.592-243 98-34.765 21.753-65.598 48.253-92.5 79.5-22.678 27.03-37.012 58.03-43 93-3.241 32.567 2.759 63.233 18 92 18.188 30.528 41.688 56.362 70.5 77.5 52.752 37.063 110.418 64.396 173 82 74.974 21.606 151.31 34.773 229 39.5a1189.723 1189.723 0 01-31 25.5 668.023 668.023 0 00-41.5 45.5l-57 83c1.179 6.98-1.321 11.98-7.5 15a514.101 514.101 0 01-25.5 55c-.612 10.73-3.612 20.73-9 30-24.572 73.01-33.905 148.01-28 225 1.447 17.36 3.113 34.69 5 52a696.192 696.192 0 0032 93c9.347 16.7 18.681 33.37 28 50a665.247 665.247 0 0058.5 64.5c19 11.67 38 23.33 57 35 25.73 7.93 51.73 14.93 78 21 6.5.17 13 .33 19.5.5 104.09-.69 196.26-33.86 276.5-99.5 27.03-24.68 51.53-51.52 73.5-80.5 68.75-105.32 103.59-220.98 104.5-347-.06-24.02-.72-48.02-2-72 20.71 1.54 41.37 1.21 62-1 5.67 91.6 9.01 183.27 10 275 .06 1.24.56 2.24 1.5 3 1.28 32 2.61 64 4 96 1.48 44.75.32 89.42-3.5 134 2.23 6.55 2.57 13.22 1 20-.21 2.51.45 4.68 2 6.5a60.357 60.357 0 0020 6c16.66 1.27 33.33 2.6 50 4 23.92 3.66 47.92 6.66 72 9 16.8 2.21 33.3 5.71 49.5 10.5 3.26-1.13 6.26-2.8 9-5 .26-36-.07-72-1-108-4.83-119.67-9.83-239.34-15-359-1.8-18.65-3.3-37.32-4.5-56v-9h5c2.09 9.18 5.59 17.85 10.5 26a4847.08 4847.08 0 0085 143 3921.997 3921.997 0 00166.5 237c-37.81-4.98-74.81-1.48-111 10.5-6.89 3.28-13.89 6.28-21 9-42.68 23.35-76.18 56.18-100.5 98.5-4.01 9.37-8.01 18.7-12 28-2.22 8.77-4.55 17.43-7 26-1.66 8.59-2.66 17.25-3 26-1.25 32.67-2.42 65.33-3.5 98-536.98 28.32-1073.978 56.49-1611 84.5-64.218 6.61-117.052-14.56-158.5-63.5-21.011-27.01-33.011-57.68-36-92A557772.682 557772.682 0 0133.5 432c1.799-76.961 37.799-130.961 108-162a231.05 231.05 0 0133-9 5441.938 5441.938 0 01151-9c1390.34-72.632 2780.67-145.298 4171-218 76.46-6.52 134.63 22.646 174.5 87.5 11.16 20.98 17.83 43.313 20 67 22.03 419.665 44.03 839.33 66 1259 6.6 74.95-21.56 132.45-84.5 172.5-19.66 11-40.66 18-63 21-34.32 2.67-68.65 4.17-103 4.5-35.46-44.07-81.13-70.57-137-79.5-293.83-11.14-587.49-22.3-881-33.5z" opacity=".999"/>
  <path fill="#1d1b01" d="M1584.5 903.5c-86.64 30.831-174.64 35.331-264 13.5-22.26-5.851-42.59-15.518-61-29-9.32-7.306-16.32-16.306-21-27-43.36-.051-86.69-.885-130-2.5-77.69-4.727-154.026-17.894-229-39.5-62.582-17.604-120.248-44.937-173-82-28.812-21.138-52.312-46.972-70.5-77.5-15.241-28.767-21.241-59.433-18-92 5.988-34.97 20.322-65.97 43-93 26.902-31.247 57.735-57.747 92.5-79.5 75.896-45.408 156.896-78.074 243-98 169.41-39.816 340.07-45.482 512-17 53.47 9.158 105.47 23.491 156 43 45.3 17.312 87.3 40.312 126 69 24.85 19.501 45.35 42.667 61.5 69.5 18.57 32.58 24.24 67.247 17 104-8.77 34.539-25.1 64.872-49 91-35.73 37.75-76.56 68.583-122.5 92.5a1764.793 1764.793 0 01-68 33 134.409 134.409 0 0120.5 18.5c12.64 18.934 12.64 37.934 0 57-9.98 12.395-21.82 22.562-35.5 30.5a648.308 648.308 0 01-30 15.5z" opacity="1"/>
  <path fill="#fefefe" d="M1525.5 752.5c-9.16-1.14-18.5-1.64-28-1.5 5.82 1.458 11.82 2.291 18 2.5 28.69 3.172 56.02 11.005 82 23.5 15.42 7.75 26.26 19.584 32.5 35.5.69 6.382.36 12.715-1 19-6.22 13.888-15.72 25.055-28.5 33.5-26.45 15.708-54.78 26.708-85 33-54.57 10.974-109.24 11.307-164 1-20.55-4.183-39.89-11.517-58-22-14.05-7.704-23.22-19.204-27.5-34.5-1.6-8.902-.27-17.235 4-25 9.25-12.912 20.75-23.412 34.5-31.5 18.35-10.226 37.68-17.893 58-23-14.66.277-29 2.611-43 7-20.48 8.25-39.48 18.917-57 32-9.98 8.642-17.65 18.976-23 31-90.22 3.468-179.55-3.532-268-21a825.387 825.387 0 01-144-45c-39.426-16.872-75.092-39.539-107-68-28.658-26.141-46.825-58.308-54.5-96.5-3.289-35.511 4.711-68.177 24-98 24.296-34.63 54.129-63.464 89.5-86.5 63.907-40.315 132.574-69.982 206-89 125.18-32.954 252.51-45.62 382-38 90.49 5.232 178.49 22.899 264 53 43.79 16.056 84.13 38.056 121 66 26.47 21.13 46.97 46.963 61.5 77.5 13.8 37.149 12.47 73.816-4 110-12.02 23.693-27.52 44.859-46.5 63.5-31.01 28.679-65.34 52.679-103 72a570.219 570.219 0 01-71 31.5 416.129 416.129 0 00-64-12z" opacity="1"/>
  <path fill="#08aeef" d="M1735.5 439.5h8a645.837 645.837 0 0113 103.5c.98 26.645-4.52 51.812-16.5 75.5-15.79 22.575-36.96 30.075-63.5 22.5-22.21-12.585-32.88-31.752-32-57.5a152.67 152.67 0 0033-17 7.239 7.239 0 012.5 2c.22 9.086 2.22 17.753 6 26 8.17 9.6 15.84 9.267 23-1a73.971 73.971 0 005-16 287.373 287.373 0 001-66 767.733 767.733 0 01-8-59 89.039 89.039 0 0113.5-7.5 132.144 132.144 0 0015-5.5z" opacity="1"/>
  <path fill="#0baeef" d="M1618.5 447.5c1.32-.17 2.49.163 3.5 1-.33 48.465 2.01 96.799 7 145a911.81 911.81 0 016.5 48.5 180.611 180.611 0 00-41.5 10.5 3.947 3.947 0 01-2-1 2483.8 2483.8 0 00-12-191c12.58-5.47 25.41-9.803 38.5-13z" opacity="1"/>
  <path fill="#09aeef" d="M1508.5 451.5a308.288 308.288 0 0140 7.5c1.5 1.491 2.34 3.324 2.5 5.5 2.82 55.542 9.48 110.542 20 165-6.89 6.533-14.72 11.7-23.5 15.5a35.533 35.533 0 01-12 3.5 1983.71 1983.71 0 01-13.5-125 821.85 821.85 0 00-23 114c-.16 2.176-1 4.009-2.5 5.5-10.53 1.72-21.03 1.887-31.5.5a764.046 764.046 0 00-23-107 3590.088 3590.088 0 01-5 116c-.56.522-1.23.855-2 1a148.202 148.202 0 00-33.5-10 974.246 974.246 0 007.5-151 245.671 245.671 0 01-2-25 174.576 174.576 0 0134.5-11.5c3.38-.824 6.72-.657 10 .5 3.6 9.617 7.1 19.284 10.5 29a1431.55 1431.55 0 0121 86 4266.06 4266.06 0 0115-81 597.27 597.27 0 0110.5-39z" opacity="1"/>
  <path fill="#07aeef" d="M1230.5 466.5c51.94-2.721 74.77 21.612 68.5 73-5.97 24.793-19.8 43.793-41.5 57 10.74 9.893 22.74 18.06 36 24.5a12.355 12.355 0 015 4.5c-8.03 14.408-18.2 27.074-30.5 38-2.16-1.485-4.32-2.985-6.5-4.5a552.943 552.943 0 01-40-48.5c.13 11.727-.04 23.727-.5 36a61.814 61.814 0 01-1.5 11c-10.7 3.661-21.7 4.828-33 3.5a11.323 11.323 0 01-3.5-1.5c1.87-59.108-1.3-117.941-9.5-176.5.29-1.89 1.29-3.223 3-4 17.25-8.042 35.25-12.208 54-12.5z" opacity="1"/>
  <path fill="#05aeef" d="M1100.5 473.5c25.61-1.284 44.77 9.049 57.5 31 8.53 15.566 12.03 32.232 10.5 50 .57 33.402-8.59 63.736-27.5 91-16.76 20.3-38.26 29.466-64.5 27.5-13.76-3.797-24.6-11.63-32.5-23.5-13.69-23.184-18.69-48.184-15-75 2.77-25.659 11.44-48.992 26-70 11.49-15.975 26.65-26.308 45.5-31z" opacity="1"/>
  <path fill="#06aeef" d="M946.5 481.5c25.54-1.316 44.707 9.018 57.5 31 8.14 15.126 11.64 31.293 10.5 48.5.92 34.477-8.58 65.644-28.5 93.5-20.378 24.048-45.544 31.548-75.5 22.5-12.368-8.042-21.535-18.875-27.5-32.5-15.983-48.428-9.316-93.428 20-135 11.591-14.134 26.091-23.468 43.5-28zm-115 11a203.093 203.093 0 0144.5 14c.667 1.667.667 3.333 0 5a878.82 878.82 0 00-54 171 219.98 219.98 0 01-34.5 1.5c-16.747-57.653-39.414-112.82-68-165.5l1-3a256.385 256.385 0 0137.5-19c1.711-.061 3.044.606 4 2 18.839 37.184 32.506 76.184 41 117 4.723-42.115 14.223-83.115 28.5-123z" opacity="1"/>
  <path fill="#fefefe" d="M1228.5 507.5c6.68.289 13.34.789 20 1.5 7.6 1.938 12.1 6.772 13.5 14.5.58 15.334-5.58 27.167-18.5 35.5-7.42 4.418-15.42 6.918-24 7.5-.93-19.03-2.26-38.03-4-57 4.53-.27 8.86-.937 13-2z" opacity="1"/>
  <path fill="#fdfefe" d="M1097.5 523.5c16.28-1.612 26.78 5.388 31.5 21 4.26 21.534 1.59 42.201-8 62-7.02 13.227-17.86 18.394-32.5 15.5-9.57-4.938-15.4-12.771-17.5-23.5-4.6-22.687-.6-43.687 12-63 4.15-4.997 8.98-8.997 14.5-12z" opacity="1"/>
  <path fill="#fefefe" d="M943.5 531.5c16.282-1.612 26.782 5.388 31.5 21 4.35 22.894 1.017 44.561-10 65-8.8 12.602-20.3 16.102-34.5 10.5-7.385-5.253-11.885-12.42-13.5-21.5-4.934-24.675.066-47.008 15-67 3.464-3.305 7.297-5.972 11.5-8z" opacity="1"/>
  <path fill="#01adef" d="M4237.5 623.5c6.2-1.215 11.37.452 15.5 5a458.168 458.168 0 0012.5 92c8.05 97.247 16.22 194.58 24.5 292 .77 9.19.6 18.36-.5 27.5.91 3.82 1.75 7.65 2.5 11.5 4.65 83.6 7.15 167.27 7.5 251 1.9-.07 3.73.27 5.5 1a937.318 937.318 0 01130.5-18.5c16.41-4.39 33.07-7.39 50-9 28.52-1.89 57.02-4.06 85.5-6.5 6.1-1.05 9.93 1.29 11.5 7-5 15.17-8.67 30.67-11 46.5a25.722 25.722 0 00-3.5 7.5c-1 9.98-1.83 19.98-2.5 30-1.08 1.17-1.92 2.5-2.5 4a342.268 342.268 0 00-4 54c-1.66 8.32-4.49 16.15-8.5 23.5-85.66 8.73-171.33 17.4-257 26a813.299 813.299 0 01-103 13c-24.09 7.55-48.76 11.88-74 13-6.33 2.83-12.67 5.67-19 8.5-2-1.67-4-3.33-6-5 .04-236.15-10.46-471.82-31.5-707a90.66 90.66 0 00-4.5-20 20 20 0 001-5.5 1705.61 1705.61 0 00-5.5-51.5 202.14 202.14 0 01-1-33c4.65-3.445 9.81-5.945 15.5-7.5a313.603 313.603 0 0140-7 29.488 29.488 0 0111-6 303.347 303.347 0 0131-6c13.75-6.025 28.09-10.358 43-13a3137.482 3137.482 0 0147-17.5zm-749 909h-19c-7.14-1.79-14.47-3.29-22-4.5a4134.76 4134.76 0 01-60-8 577.69 577.69 0 00-69-6c-10.34-1.21-20.17-4.04-29.5-8.5-.78-6.87-.61-13.7.5-20.5-1.53-2.74-2.19-5.74-2-9 3.98-71.5 3.81-143-.5-214.5.02-5.07-.82-9.9-2.5-14.5.03-65.17-1.47-130.33-4.5-195.5-1.75-42.65-5.25-85.154-10.5-127.5.57-3.641.9-7.308 1-11a2578.443 2578.443 0 00-22-181.5c-.03-2.933.8-5.6 2.5-8 7.16-8.236 16.32-12.57 27.5-13 1.35-2.513 3.35-4.347 6-5.5 6.83-2.404 13.83-4.07 21-5 7.6-5.205 15.93-8.872 25-11a3503.513 3503.513 0 0057-16c30.36-4.387 60.86-7.554 91.5-9.5 2.42.03 4.76.363 7 1a1074.176 1074.176 0 0120 39 97.476 97.476 0 017 21 279.412 279.412 0 0012 19 2232.79 2232.79 0 0028 57 4226.016 4226.016 0 0086 152c40.11 63.23 82.44 124.9 127 185l3-3c.67-42.67.67-85.33 0-128-3.7-98.387-8.53-196.72-14.5-295 1.1-12.943 8.1-20.777 21-23.5 9.01-1.26 18.01-2.594 27-4a338.482 338.482 0 0149-13 781.598 781.598 0 0078-29c4.84-1.214 9.01-.047 12.5 3.5a1572.5 1572.5 0 01.5 112 78.133 78.133 0 002 10.5 1103.008 1103.008 0 00-1.5 94.5c2.51 61.69 5.51 123.356 9 185 2.07 41.61 6.57 82.95 13.5 124-1 4.98-1.16 9.98-.5 15 4.25 32.97 8.25 65.97 12 99 .91.83 1.58 1.83 2 3 4.98 27.46 8.31 55.12 10 83 2.88 6.69 4.88 13.69 6 21 3.68 17.16 5.02 34.49 4 52a32.58 32.58 0 01-11.5 8.5c-6.77 2.37-13.61 4.54-20.5 6.5-1.7 2.11-3.87 3.61-6.5 4.5-6.87 2.47-13.87 4.47-21 6-1.38 1.71-3.04 3.05-5 4-6.86 2.73-13.86 5.07-21 7-7.85 5.29-16.52 8.62-26 10-1.81 2.4-4.14 4.07-7 5-8.36 1.99-16.03 5.32-23 10l-18 6-5 5c-1.67.67-3.33.67-5 0a3134.536 3134.536 0 01-61.5-72.5 3601.274 3601.274 0 01-204-287c-26.8-43.48-52.8-87.48-78-132-4.66-8.32-8.5-16.99-11.5-26-1.55-.952-3.21-1.285-5-1 2 22.31 3.83 44.64 5.5 67 5.3 109.97 9.97 219.97 14 330 2.01 44.98 2.68 89.98 2 135-.99.57-1.83 1.23-2.5 2z" opacity="1"/>
  <path fill="#231f20" d="M2961.5 1513.5c-68-2.46-136-4.96-204-7.5a438.39 438.39 0 00-48.5.5c-59.5-2.42-119-4.75-178.5-7a481.854 481.854 0 01-27.5-36 422.032 422.032 0 01-34-75 1087.06 1087.06 0 01-14-70 500.498 500.498 0 01-1.5-78 12.835 12.835 0 01-2-5.5c4.11-28.74 7.61-57.57 10.5-86.5a418.65 418.65 0 0013-56 779.24 779.24 0 0021-59c1.67-1 3-2.33 4-4 1.94-4.44 3.28-9.1 4-14a491.408 491.408 0 0030-59c31.51-47.425 67.68-91.258 108.5-131.5 4.07-3.063 8.4-5.73 13-8 3.3-4.3 6.96-8.3 11-12 44.34-34.705 92.34-63.038 144-85a231.97 231.97 0 0121-4 36.04 36.04 0 017-4 423.002 423.002 0 0162-16c20.76-1.039 41.42-2.706 62-5 22.33-.667 44.67-.667 67 0 16 3.133 32 6.133 48 9a14.639 14.639 0 006 4 108.362 108.362 0 0018 4c1.08 2.043 2.75 3.376 5 4 3.61.945 7.28 1.612 11 2 2.17.833 3.67 2.333 4.5 4.5.67 3.333.67 6.667 0 10-10.6 50.425-16.93 101.425-19 153a320.532 320.532 0 00-3 19 38.276 38.276 0 01-2.5 6.5 849.551 849.551 0 00-31-10 272.694 272.694 0 01-37-8c-32.37-.286-64.7.714-97 3-37.85 7.603-73.85 20.27-108 38-42.73 22.391-79.9 51.891-111.5 88.5-49.79 57.67-74.96 124.84-75.5 201.5-.14 21.02 3.03 41.52 9.5 61.5 22.78 67.78 69.95 101.94 141.5 102.5 16.28-3.85 32.61-7.52 49-11 10.42-4.54 21.08-8.54 32-12 1.44-.99 2.44-2.32 3-4 28.65-14.32 52.82-34.15 72.5-59.5 4.51-7.06 7.01-14.72 7.5-23a6573.22 6573.22 0 00-173 44.5c-5.08 1.8-10.08 3.8-15 6-3.76 1.18-6.59.01-8.5-3.5-.04-17.01.63-34.01 2-51 .33-35.67.67-71.33 1-107 .47-1.43 1.3-2.6 2.5-3.5 9.46-4.53 19.46-7.2 30-8 5.97-3.48 12.3-6.15 19-8 8.75-1.63 17.42-3.63 26-6a58.187 58.187 0 0116-6c10.94-1.25 21.27-4.25 31-9 9.62-2.39 19.29-4.39 29-6 4.26-2.92 8.93-4.92 14-6 9.63-2.21 19.3-4.21 29-6a358.55 358.55 0 0144-12c2.12-2.39 4.79-3.73 8-4 10.21-2.44 20.55-4.11 31-5a373.415 373.415 0 0158-16l2-2c9.85-2.53 19.85-4.2 30-5 16.92-7.18 34.58-11.18 53-12 7.11-5.56 15.11-7.56 24-6 1.52 1.35 2.85 2.85 4 4.5-2.01 9.58-3.51 19.24-4.5 29-3.28 42.98-6.28 85.98-9 129-.23 4.92-1.4 9.58-3.5 14-11.53.2-22.86 1.7-34 4.5-8.78 1.97-16.28 6.14-22.5 12.5-5.41 27.24-13.08 53.91-23 80-30.87 81-81.37 146.67-151.5 197zm-537-18c-87-3.12-174-6.12-261-9a3921.997 3921.997 0 01-166.5-237 4847.08 4847.08 0 01-85-143c-4.91-8.15-8.41-16.82-10.5-26-1.76-.96-3.76-1.29-6-1-.31 3.54.02 6.88 1 10 1.2 18.68 2.7 37.35 4.5 56 5.17 119.66 10.17 239.33 15 359 .93 36 1.26 72 1 108-2.74 2.2-5.74 3.87-9 5-16.2-4.79-32.7-8.29-49.5-10.5-24.08-2.34-48.08-5.34-72-9-16.67-1.4-33.34-2.73-50-4a60.357 60.357 0 01-20-6c-1.55-1.82-2.21-3.99-2-6.5 1.57-6.78 1.23-13.45-1-20 3.82-44.58 4.98-89.25 3.5-134-1.39-32-2.72-64-4-96-.94-.76-1.44-1.76-1.5-3-.99-91.73-4.33-183.4-10-275a342.408 342.408 0 01-62 1c1.28 23.98 1.94 47.98 2 72-.91 126.02-35.75 241.68-104.5 347-21.97 28.98-46.47 55.82-73.5 80.5-80.24 65.64-172.41 98.81-276.5 99.5-6.5-.17-13-.33-19.5-.5-26.27-6.07-52.27-13.07-78-21-19-11.67-38-23.33-57-35a665.247 665.247 0 01-58.5-64.5c-9.319-16.63-18.653-33.3-28-50a696.192 696.192 0 01-32-93 2054.594 2054.594 0 01-5-52c-5.905-76.99 3.428-151.99 28-225 5.388-9.27 8.388-19.27 9-30a514.101 514.101 0 0025.5-55c6.179-3.02 8.679-8.02 7.5-15l57-83a668.023 668.023 0 0141.5-45.5 1189.723 1189.723 0 0031-25.5c43.31 1.615 86.64 2.449 130 2.5 4.68 10.694 11.68 19.694 21 27 18.41 13.482 38.74 23.149 61 29 89.36 21.831 177.36 17.331 264-13.5 3.89 4.755 7.56 9.755 11 15 29.7-10.626 60.37-15.959 92-16a3233.813 3233.813 0 00-12-90c.02-2.134.52-4.134 1.5-6 6.53-8.847 15.36-13.347 26.5-13.5 2.6-3.305 5.93-5.639 10-7a323.887 323.887 0 0019-4.5 31.34 31.34 0 019-5.5c24.3-7.488 48.64-14.488 73-21 32.24-4.325 64.58-7.325 97-9a320.84 320.84 0 0127.5 59.5 156.414 156.414 0 0011 18 1706.88 1706.88 0 0035 70 6599.526 6599.526 0 0076 134 2466.996 2466.996 0 00131.5 191c.98-.48 1.81-1.14 2.5-2 .67-44.67.67-89.33 0-134-3.19-90.384-7.52-180.718-13-271a168.41 168.41 0 010-26c3.32-7.254 8.82-12.088 16.5-14.5 9.25-1.84 18.59-3.174 28-4a265.528 265.528 0 0031-10c9.62-.818 18.95-2.818 28-6a995.331 995.331 0 0069-26c3.33-.667 6.67-.667 10 0 1.06 1.188 2.4 1.688 4 1.5 1.04 91.934 1.88 183.934 2.5 276 2.72 70.5 7.39 140.83 14 211 1.89 12.86 4.06 25.7 6.5 38.5-.43 2.82-.77 5.65-1 8.5 3.89 35.7 8.06 71.36 12.5 107 1.74 1.22 2.74 2.88 3 5 1.19 6.3 2.19 12.64 3 19 2.33 20.64 4.33 41.3 6 62 2.04 4.48 3.7 9.15 5 14 1.44 9.35 2.94 18.69 4.5 28z" opacity="1"/>
  <path fill="#817c4e" d="M1525.5 752.5c-3.54-.313-6.88.021-10 1-6.18-.209-12.18-1.042-18-2.5 9.5-.14 18.84.36 28 1.5z" opacity="1"/>
  <path fill="#231f20" d="M768.5 801.5c3.724-.45 5.891 1.217 6.5 5a347.963 347.963 0 018 39 32.5 32.5 0 013 7 3082.162 3082.162 0 0115 84 634.78 634.78 0 0012 53 939.024 939.024 0 016 55 7.32 7.32 0 012 3 380.322 380.322 0 018 44c3.144 62.85 6.311 125.68 9.5 188.5a1130.428 1130.428 0 00-5.5 40.5 760.004 760.004 0 01-4 55c-6.786 42.81-17.786 84.48-33 125-55.87 135.55-157.37 202.39-304.5 200.5a257.52 257.52 0 01-54-6c-1.495-1.16-2.995-2.33-4.5-3.5-20.916-4.31-40.416-12.14-58.5-23.5a861.7 861.7 0 01-41-28c-28.167-27.51-50.001-59.34-65.5-95.5-11.596-32.45-19.263-65.78-23-100 3.06-3.11 6.56-5.61 10.5-7.5 7-1.67 14-3.33 21-5 1.656-1.83 3.656-3.16 6-4 7.673-2.17 15.339-4.34 23-6.5 2.107-2.56 4.774-4.39 8-5.5a194.937 194.937 0 0117.5-4.5c6.318-5.01 13.485-8.51 21.5-10.5 6.757-5.28 14.424-8.62 23-10 6.579-5.12 13.912-8.96 22-11.5a12.36 12.36 0 015-4.5c3.642-1.27 7.308-2.44 11-3.5 3.623-6.31 8.956-8.48 16-6.5a17.785 17.785 0 015.5 4.5c-.088 33.98 7.245 66.32 22 97 2 .67 3.333 2 4 4 .895 3.71 1.895 7.38 3 11 12.307 14.66 27.14 25.82 44.5 33.5 12.349.49 24.682.16 37-1 6.174-1.17 11.84-3.5 17-7 14.383-11.38 26.217-24.88 35.5-40.5a512.302 512.302 0 0020-65 184.193 184.193 0 003-30 156.002 156.002 0 005-27c8.435-130.44-1.232-259.44-29-387a340.165 340.165 0 00-13-66 344.384 344.384 0 01-1-29c11.08-9.542 23.747-16.208 38-20 9.016-5.715 18.849-9.215 29.5-10.5l3-3a107.16 107.16 0 0125-7l11-5a851.741 851.741 0 0128.5-5.5 45.416 45.416 0 0115.5-6.5 349.562 349.562 0 0135-3.5z" opacity="1"/>
  <path fill="#fdfdfe" d="M1664.5 923.5c21.12-.754 42.12.413 63 3.5a134.468 134.468 0 0140 15c27.89 19.591 29.22 40.925 4 64-14.25 10.2-29.92 17.54-47 22-30.11 6.86-60.44 8.19-91 4-23.13-3.02-42.96-12.52-59.5-28.5-9.88-13.699-9.88-27.365 0-41 14.78-15.483 32.62-25.983 53.5-31.5a476.459 476.459 0 0137-7.5z" opacity="1"/>
  <path fill="#fefefe" d="M1296.5 991.5c49.28-3.107 89.78 14.23 121.5 52a356.214 356.214 0 0116 32c16.15 55.51 17.81 111.51 5 168-9.48 44.28-27.14 84.95-53 122a444.72 444.72 0 01-34.5 36.5 293.56 293.56 0 01-19 13 277.994 277.994 0 01-60 18c-37.19 1.84-70.52-8.5-100-31-17.26-16.93-30.09-36.77-38.5-59.5-32.22-109.35-12.22-208.01 60-296 4.95-5.07 9.78-10.24 14.5-15.5 10.69-8.03 21.35-16.03 32-24a872.591 872.591 0 0131-12 943.33 943.33 0 0024-2c.56-.383.89-.883 1-1.5z" opacity="1"/>
  <path fill="#fcfcfc" d="M1913.5 995.5c17.18-1.692 33.52 1.141 49 8.5 13.18 7.99 15.34 18.16 6.5 30.5-9.18 8.51-20.01 13.67-32.5 15.5-18.53 3.78-36.2 1.45-53-7-16.23-12.66-15.89-25 1-37 9.25-5.02 18.92-8.524 29-10.5z" opacity="1"/>
  <path fill="#828486" d="M1901.5 1080.5h-5v9c-.98-3.12-1.31-6.46-1-10 2.24-.29 4.24.04 6 1z" opacity="1"/>
  <path fill="#fefbdf" d="M2124.5 1505.5c-3.23.91-6.56 1.25-10 1h-2c3.16-.82 6.5-1.49 10-2 .92.04 1.58.38 2 1z" opacity="1"/>
  <path fill="#fdeb07" d="M2124.5 1505.5c181.33 7.02 362.66 13.86 544 20.5 16.84.28 33.67.78 50.5 1.5 6.49-.46 12.99-.79 19.5-1 538.03 18.98 1076.03 38.64 1614 59 6.03 2.05 12.36 3.05 19 3 3.08.42 6.08 1.08 9 2a133.48 133.48 0 0019 6c1.29-.24 2.29.1 3 1 7.16 4.07 14.83 7.4 23 10a58.5 58.5 0 019 5c.47 1.41 1.47 2.07 3 2 .99-.17 1.66.16 2 1 3.8 3.74 8.14 6.74 13 9 .47 1.41 1.47 2.07 3 2 2.33 2 4.67 4 7 6 1.37 2.36 3.37 4.03 6 5 .67 0 1 .33 1 1 3 3.67 6.33 7 10 10 2.33 2.67 4.67 5.33 7 8 .92 2.59 2.59 4.59 5 6 2 2.33 4 4.67 6 7-.07 1.53.59 2.53 2 3 2.4 1.8 4.07 4.13 5 7 .15 2.47 1.15 4.47 3 6 2.77 3.21 4.77 6.88 6 11 2.43 5.86 5.1 11.52 8 17a27.34 27.34 0 014 11c.68 4.22 1.68 8.39 3 12.5.34 1.03 1 1.53 2 1.5v1c-.98 2.1-.65 4.1 1 6v2c-.05 2.87.28 5.71 1 8.5.18 1.38.85 2.21 2 2.5.89 3.24.89 6.4 0 9.5.67.33 1.33.67 2 1-1.7 68.45-4.37 136.95-8 205.5-1.84 1.5-2.18 3.16-1 5-1.44 5.63-2.77 11.29-4 17-.62.11-1.12.44-1.5 1-1.33 4.31-2.49 8.64-3.5 13v1c-.84.34-1.17 1.01-1 2-.4 3.21-1.4 6.21-3 9-3.67 4.67-6.33 10-8 16 .11.62.44 1.12 1 1.5-1.69 1.25-3.03 2.75-4 4.5-1.75 1.16-2.75 2.83-3 5-.88-.13-1.54.2-2 1-2.72 4.37-5.39 8.7-8 13-1.89 4.28-4.89 8.28-9 12-2.09 1.08-3.42 2.75-4 5 0 .67-.33 1-1 1-3.94 2.27-7.27 5.27-10 9a25.888 25.888 0 01-6 6c-3.31 1.65-5.98 3.98-8 7 0 .67-.33 1-1 1 .07-.44-.1-.77-.5-1-3 2.23-5.83 4.57-8.5 7 0 .67-.33 1-1 1-1.53-.07-2.53.59-3 2-4.13 2.9-8.46 5.57-13 8 .07-.44-.1-.77-.5-1-2.07.6-3.24 1.94-3.5 4-5.01 2.15-10.35 4.49-16 7-4.23.28-8.23 1.44-12 3.5-1.26.42-1.92 1.25-2 2.5-8.89 2.79-18.22 5.13-28 7-1-1.33-2-1.33-3 0a108.59 108.59 0 01-22 3c-2.33-1.33-4.67-1.33-7 0a51039.21 51039.21 0 01-305.5-11c-4.58.2-9.08.86-13.5 2-632.98-23.76-1265.98-47.26-1899-70.5-10.59-.11-20.92-1.61-31-4.5-4.24-2.42-8.9-4.08-14-5-.92.04-1.58.38-2 1-16.84-4.92-32.51-12.25-47-22 .13-.88-.2-1.54-1-2-1.19-1.15-2.19-1.15-3 0-1.73-.53-3.06-1.53-4-3 .13-.88-.2-1.54-1-2-1.19-1.15-2.19-1.15-3 0-6.07-5.55-12.4-10.88-19-16-4.87-6.39-10.2-12.39-16-18a6.603 6.603 0 01-3-3c.07-1.53-.59-2.53-2-3-.67 0-1-.33-1-1-.58-2.25-1.91-3.92-4-5-3.43-3.1-6.1-6.77-8-11-.15-2.47-1.15-4.47-3-6-2.77-3.21-4.77-6.88-6-11a68.576 68.576 0 00-8-17 54.423 54.423 0 01-4-11c-.53-4.25-1.53-8.42-3-12.5-.34-1.03-1-1.53-2-1.5-.91-1.46-.91-2.8 0-4 .16-2.69 0-5.35-.5-8-.12-1.94-.95-3.27-2.5-4-1.4-4.51-1.73-9.01-1-13.5a79.946 79.946 0 01-2-18.5c2.21-59.02 4.54-118.02 7-177 1.24-6.9 2.58-13.9 4-21-.18-3.62.49-6.96 2-10a2150.7 2150.7 0 005-16c-.11-.62-.44-1.12-1-1.5 1.63-2.42 2.96-4.92 4-7.5 3.22-6.11 6.22-12.45 9-19 .16-1.65.83-2.99 2-4 2.09-1.84 3.42-4.17 4-7 3.81-4.28 7.15-8.94 10-14 1.1-.9 1.1-1.73 0-2.5 2.11-1.72 4.11-3.56 6-5.5 6-6.33 12-12.67 18-19 2.33-3 5-5.67 8-8 5.62-3.62 10.95-7.62 16-12 .76-1.76 2.1-2.76 4-3 1.53.07 2.53-.59 3-2 2.2-1.6 4.53-2.93 7-4 4.5-2.08 8.83-4.42 13-7 1.37.16 2.71-.01 4-.5 7.64-3.81 15.31-7.31 23-10.5 9.23-1.89 18.23-4.22 27-7h3c4.93.27 9.6-.4 14-2 3.44.25 6.77-.09 10-1z" opacity=".999"/>
  <path fill="#fef284" d="M2112.5 1506.5h2c-4.4 1.6-9.07 2.27-14 2 3.74-1.49 7.74-2.16 12-2z" opacity="1"/>
  <path fill="#fff7bd" d="M2097.5 1508.5c-8.77 2.78-17.77 5.11-27 7 8.31-2.97 16.81-5.64 25.5-8 .38.56.88.89 1.5 1z" opacity="1"/>
  <path fill="#fff5a3" d="M2070.5 1515.5c-7.69 3.19-15.36 6.69-23 10.5-1.29.49-2.63.66-4 .5 8.49-5.48 17.49-9.15 27-11z" opacity="1"/>
  <path fill="#fefad9" d="M2043.5 1526.5c-4.17 2.58-8.5 4.92-13 7 3.51-3.01 7.34-5.68 11.5-8 .38.56.88.89 1.5 1z" opacity="1"/>
  <path fill="#fef9cd" d="M2023.5 1537.5c-.47 1.41-1.47 2.07-3 2 .47-1.41 1.47-2.07 3-2z" opacity="1"/>
  <path fill="#fffad7" d="M2016.5 1542.5c-5.05 4.38-10.38 8.38-16 12 4.64-4.47 9.47-8.8 14.5-13 .38.56.88.89 1.5 1zm-24 20c-6 6.33-12 12.67-18 19 2.2-4.38 5.03-8.38 8.5-12 2.78-2.96 5.95-5.3 9.5-7z" opacity="1"/>
  <path fill="#fff7b8" d="M4352.5 1585.5c6.61.11 12.94 1.11 19 3-6.64.05-12.97-.95-19-3z" opacity="1"/>
  <path fill="#fff9d0" d="M4380.5 1590.5c4.05.51 8.05 1.35 12 2.5 2.78.52 5.11 1.69 7 3.5a133.48 133.48 0 01-19-6z" opacity="1"/>
  <path fill="#fef9d1" d="M1968.5 1589.5a80.152 80.152 0 01-10 14c2.38-5.45 5.71-10.11 10-14z" opacity="1"/>
  <path fill="#fff8c1" d="M4402.5 1597.5a82.513 82.513 0 0123 10c-8.17-2.6-15.84-5.93-23-10z" opacity="1"/>
  <path fill="#fffbe0" d="M1958.5 1603.5c-.58 2.83-1.91 5.16-4 7 .58-2.83 1.91-5.16 4-7z" opacity="1"/>
  <path fill="#fff9cc" d="M4434.5 1612.5c1.53-.07 2.53.59 3 2-1.53.07-2.53-.59-3-2z" opacity="1"/>
  <path fill="#e50d7e" d="M2197.5 1615.5c23.67 2.5 46 9.33 67 20.5 3.83 2.5 7 5.67 9.5 9.5a389.183 389.183 0 0121 61c3.52 28.94 6.52 57.94 9 87a307.19 307.19 0 0111-61c9.12-34.04 19.46-67.7 31-101 8.02-8.05 17.52-10.21 28.5-6.5 13.02 3.89 25.69 8.56 38 14 6.21 4.42 9.54 10.42 10 18-21.87 95.29-50.04 188.79-84.5 280.5-.94 3.26-1.44 6.6-1.5 10 1.67 6.21 2.17 12.55 1.5 19-1.25 2.88-3.42 4.71-6.5 5.5-27.54 5.78-52.87.78-76-15-4.26-4.36-7.1-9.52-8.5-15.5l-3-17c-6.76-55.05-13.76-110.05-21-165-11.43 67.83-28.43 134.17-51 199-3.01 4.02-6.84 6.85-11.5 8.5-21.13.86-41.13-3.47-60-13-7.93-7.33-10.09-16.17-6.5-26.5l66-222a764.042 764.042 0 0129-83c2.46-2.98 5.3-5.31 8.5-7z" opacity="1"/>
  <path fill="#fff9d0" d="M4439.5 1615.5c4.11 1.89 8.11 4.05 12 6.5.75.67 1.09 1.5 1 2.5-4.86-2.26-9.2-5.26-13-9z" opacity="1"/>
  <path fill="#fffad9" d="M1952.5 1614.5c-2.78 6.55-5.78 12.89-9 19 1.74-7.13 4.74-13.46 9-19z" opacity="1"/>
  <path fill="#fefce6" d="M4452.5 1624.5c1.53-.07 2.53.59 3 2-1.53.07-2.53-.59-3-2z" opacity="1"/>
  <path fill="#e50c7e" d="M2487.5 1629.5c15-.17 30 0 45 .5 45.96 3.05 91.96 5.38 138 7 17.63 2.07 23.46 11.57 17.5 28.5a327.448 327.448 0 01-20 54l-4.5 4.5c-14.67.67-29.33.67-44 0-3.69-.56-7.35-1.23-11-2-21.19-.82-42.36-1.99-63.5-3.5-5.67-.25-11.17.59-16.5 2.5 8 3.67 16 7.33 24 11 6.42 3.34 9.25 8.51 8.5 15.5-3.12 8.49-5.62 17.16-7.5 26 21.99 1 43.99 1.83 66 2.5 7.64.47 14.97 2.14 22 5 3.57 2.82 5.57 6.48 6 11a560.337 560.337 0 01-9.5 36.5c-3.33 8-6.67 16-10 24-1.99 3.99-5.16 6.49-9.5 7.5-31.02-.17-62.02-.83-93-2-6.75 14.17-11.42 29-14 44.5 24.3 1.49 48.64 2.32 73 2.5 7.64.47 14.97 2.14 22 5 5.55 4.62 7.39 10.45 5.5 17.5-3.66 12.31-7.32 24.64-11 37-5.85 17.68-18.02 24.68-36.5 21-35.36-.9-70.69-2.4-106-4.5-9.39-2.71-17.22-7.87-23.5-15.5-13.84-15.01-19.17-32.68-16-53 4.7-19.12 9.86-38.12 15.5-57-7.58-.08-12.41-3.74-14.5-11-.67-5.33-.67-10.67 0-16 2.33-9.34 4.67-18.67 7-28 2.63-13.28 9.8-23.11 21.5-29.5 4.65-.5 9.32-.67 14-.5a367.415 367.415 0 0017-50 71.262 71.262 0 01-21-6.5c-4.73-2.96-6.56-7.12-5.5-12.5a269.576 269.576 0 0123-65c3.23-3.52 7.06-5.85 11.5-7z" opacity="1"/>
  <path fill="#fff6b3" d="M4462.5 1632.5c2.61.94 4.61 2.61 6 5-2.63-.97-4.63-2.64-6-5z" opacity="1"/>
  <path fill="#e50c7e" d="M2732.5 1638.5c15-.17 30 0 45 .5 45.96 3.05 91.96 5.38 138 7 17.63 2.07 23.46 11.57 17.5 28.5a327.448 327.448 0 01-20 54l-4.5 4.5c-14.67.67-29.33.67-44 0-3.65-.77-7.31-1.44-11-2-21.19-.82-42.36-1.99-63.5-3.5-5.67-.25-11.17.59-16.5 2.5 8 3.67 16 7.33 24 11 6.42 3.34 9.25 8.51 8.5 15.5-3.12 8.49-5.62 17.16-7.5 26 21.99 1 43.99 1.83 66 2.5 7.64.47 14.97 2.14 22 5 3.57 2.82 5.57 6.48 6 11a560.337 560.337 0 01-9.5 36.5c-3.33 8-6.67 16-10 24-1.99 3.99-5.16 6.49-9.5 7.5-31.02-.17-62.02-.83-93-2-6.75 14.17-11.42 29-14 44.5 24.3 1.49 48.64 2.32 73 2.5 7.55.78 14.88 2.44 22 5 5.55 4.62 7.39 10.45 5.5 17.5-3.66 12.31-7.32 24.64-11 37-5.85 17.68-18.02 24.68-36.5 21-35.36-.9-70.69-2.4-106-4.5-9.39-2.71-17.22-7.87-23.5-15.5-13.99-14.97-19.32-32.64-16-53 4.7-19.12 9.86-38.12 15.5-57-7.58-.08-12.41-3.74-14.5-11-.67-5.33-.67-10.67 0-16 2.33-9.34 4.67-18.67 7-28 2.63-13.28 9.8-23.11 21.5-29.5 4.65-.5 9.32-.67 14-.5a367.415 367.415 0 0017-50 71.262 71.262 0 01-21-6.5c-4.73-2.96-6.56-7.12-5.5-12.5a269.576 269.576 0 0123-65c3.23-3.52 7.06-5.85 11.5-7z" opacity="1"/>
  <path fill="#fefbe0" d="M4469.5 1638.5c4.33 2.33 7.67 5.67 10 10-3.67-3-7-6.33-10-10z" opacity="1"/>
  <path fill="#e50c7e" d="M3033.5 1646.5c20.75.38 41.42 1.88 62 4.5 39.37 8.05 67.54 30.21 84.5 66.5 13.07 53.04-.43 98.21-40.5 135.5a330.859 330.859 0 01-46 29.5 916.365 916.365 0 0155.5 108c4.03 10.62 1.53 19.12-7.5 25.5-13.88 8.6-28.54 15.6-44 21-4.79.88-9.45.55-14-1a40.529 40.529 0 01-8.5-10.5c-21.29-41.24-42.62-82.57-64-124-9.81 30.92-19.14 61.92-28 93l-3.5 3.5c-24.67 4.39-48.34 1.06-71-10-3.24-1.98-5.41-4.81-6.5-8.5a42.86 42.86 0 011-15 13838.26 13838.26 0 0167.5-222c-.67-.33-1.33-.67-2-1-9.78 1.95-19.61 3.62-29.5 5-4.86.07-8.52-1.93-11-6-.67-6.67-.67-13.33 0-20 3.74-15.9 9.08-31.23 16-46 1.89-3.94 4.39-7.44 7.5-10.5a84.907 84.907 0 0124-8c9.69-1.87 19.36-3.87 29-6 9.86-.78 19.53-1.95 29-3.5z" opacity="1"/>
  <path fill="#fff9d3" d="M1940.5 1642.5a2150.7 2150.7 0 01-5 16c.16-6.02 1.83-11.35 5-16z" opacity="1"/>
  <path fill="#d9ce80" d="M4486.5 1656.5c2.41 1.41 4.08 3.41 5 6-2.41-1.41-4.08-3.41-5-6z" opacity="1"/>
  <path fill="#e50d7e" d="M3284.5 1658.5c22.74-1.01 44.74 2.49 66 10.5 4.47 2.14 7.97 5.31 10.5 9.5.67 5.67.67 11.33 0 17a3409.947 3409.947 0 00-41 125c-16.6 57.79-33.6 115.46-51 173-4.51 11.51-13.01 16.85-25.5 16-22.04-.76-42.38-6.92-61-18.5-3.6-2.71-6.1-6.21-7.5-10.5-.67-6-.67-12 0-18 26.6-84.47 53.6-168.8 81-253 4.67-12 9.33-24 14-36 3.05-6.88 7.88-11.88 14.5-15z" opacity="1"/>
  <path fill="#fcf9d5" d="M4497.5 1669.5c1.41.47 2.07 1.47 2 3-1.41-.47-2.07-1.47-2-3z" opacity=".627"/>
  <path fill="#e50d7e" d="M3618.5 1693.5c-1.28 2.11-1.78 4.44-1.5 7 .94-1.99 1.77-3.99 2.5-6 2.22-9.97 7.89-17.13 17-21.5 68.84-.1 137.51 3.24 206 10 7.55 1.38 11.21 5.88 11 13.5-.12 3.72-.62 7.39-1.5 11a960.283 960.283 0 01-15 47c-2.29 4.29-5.79 7.12-10.5 8.5-28.88.34-57.72-.83-86.5-3.5-4.19.31-8.36.81-12.5 1.5 11.29 4.05 22.29 8.72 33 14 2.8 1.79 5.3 3.96 7.5 6.5 1.07 3.04 1.57 6.21 1.5 9.5a78.851 78.851 0 01-3.5 20.5 4368.374 4368.374 0 00-54 176 218.04 218.04 0 01-10 27c-4.15 6.99-10.31 10.83-18.5 11.5-22.5 2.28-43.83-1.72-64-12-2.31-1.64-3.81-3.8-4.5-6.5-.67-4.33-.67-8.67 0-13 7.07-23.53 14.73-46.86 23-70 14.6-53.13 31.6-105.47 51-157 1.02-3.82.52-7.32-1.5-10.5-19.37-.25-38.71-1.25-58-3-6.81-.38-12.64-2.88-17.5-7.5-.86-1.59-1.53-3.25-2-5-.78-7.43-.28-14.76 1.5-22 1.77-3.74 2.6-7.74 2.5-12a82.217 82.217 0 00-3.5 12c-2.73 8.68-5.56 17.35-8.5 26-2.29 4.29-5.79 7.12-10.5 8.5-28.88.34-57.72-.83-86.5-3.5-4.19.31-8.36.81-12.5 1.5 11.29 4.05 22.29 8.72 33 14 2.8 1.79 5.3 3.96 7.5 6.5 1.07 3.04 1.57 6.21 1.5 9.5a78.851 78.851 0 01-3.5 20.5 4346.108 4346.108 0 00-54 176 218.04 218.04 0 01-10 27c-4.15 6.99-10.31 10.83-18.5 11.5-22.5 2.28-43.83-1.72-64-12-2.31-1.64-3.81-3.8-4.5-6.5-.67-4.33-.67-8.67 0-13 7.07-23.53 14.73-46.86 23-70 14.6-53.13 31.6-105.47 51-157 1.02-3.82.52-7.32-1.5-10.5-19.37-.25-38.71-1.25-58-3-13.2-.04-19.87-6.54-20-19.5 1.32-17.98 6.16-34.98 14.5-51 2.97-4.97 7.14-8.47 12.5-10.5 68.84-.1 137.51 3.24 206 10 9.95 2.71 13.62 9.21 11 19.5z" opacity="1"/>
  <path fill="#e50c7e" d="M3884.5 1680.5c15-.17 30 0 45 .5 45.96 3.05 91.96 5.38 138 7 17.63 2.07 23.46 11.57 17.5 28.5a327.448 327.448 0 01-20 54l-4.5 4.5c-14.67.67-29.33.67-44 0-3.65-.77-7.31-1.44-11-2-21.19-.82-42.36-1.99-63.5-3.5-5.67-.25-11.17.59-16.5 2.5 8 3.67 16 7.33 24 11 6.42 3.34 9.25 8.51 8.5 15.5-3.12 8.49-5.62 17.16-7.5 26 21.99 1 43.99 1.83 66 2.5 7.64.47 14.97 2.14 22 5 3.57 2.82 5.57 6.48 6 11a560.337 560.337 0 01-9.5 36.5c-3.33 8-6.67 16-10 24-1.99 3.99-5.16 6.49-9.5 7.5-31.02-.17-62.02-.83-93-2a166.784 166.784 0 00-14 44.5c24.3 1.49 48.64 2.32 73 2.5 7.64.47 14.97 2.14 22 5 5.55 4.62 7.39 10.45 5.5 17.5-3.66 12.31-7.32 24.64-11 37-6.12 17.91-18.62 24.91-37.5 21-35.03-.92-70.03-2.42-105-4.5-9.39-2.71-17.22-7.87-23.5-15.5-13.84-15.01-19.17-32.68-16-53 4.7-19.12 9.86-38.12 15.5-57-7.58-.08-12.41-3.74-14.5-11-.67-5.33-.67-10.67 0-16 2.33-9.34 4.67-18.67 7-28 2.63-13.28 9.8-23.11 21.5-29.5 4.65-.5 9.32-.67 14-.5a367.415 367.415 0 0017-50 71.262 71.262 0 01-21-6.5c-4.73-2.96-6.56-7.12-5.5-12.5a269.576 269.576 0 0123-65c3.23-3.52 7.06-5.85 11.5-7z" opacity="1"/>
  <path fill="#fef9cf" d="M4504.5 1679.5c1.47 1.65 2.8 3.48 4 5.5-.23.4-.56.57-1 .5-1.85-1.53-2.85-3.53-3-6z" opacity=".996"/>
  <path fill="#fef9ce" d="M1933.5 1668.5c-1.42 7.1-2.76 14.1-4 21 .17-5.36.67-10.69 1.5-16 .05-2.24.88-3.91 2.5-5z" opacity="1"/>
  <path fill="#e50c7e" d="M4184.5 1688.5c20.75.38 41.42 1.88 62 4.5 39.37 8.05 67.54 30.21 84.5 66.5 13.19 53.09-.31 98.25-40.5 135.5a330.859 330.859 0 01-46 29.5 916.365 916.365 0 0155.5 108c4.03 10.62 1.53 19.12-7.5 25.5-13.88 8.6-28.54 15.6-44 21-4.79.88-9.45.55-14-1a40.529 40.529 0 01-8.5-10.5c-21.29-41.24-42.62-82.57-64-124-9.81 30.92-19.14 61.92-28 93l-3.5 3.5c-24.67 4.39-48.34 1.06-71-10-3.24-1.98-5.41-4.81-6.5-8.5a42.86 42.86 0 011-15 13838.26 13838.26 0 0167.5-222c-.67-.33-1.33-.67-2-1-9.78 1.95-19.61 3.62-29.5 5-4.86.07-8.52-1.93-11-6-.67-6.67-.67-13.33 0-20 3.74-15.9 9.08-31.23 16-46 1.89-3.94 4.39-7.44 7.5-10.5a84.907 84.907 0 0124-8c9.69-1.87 19.36-3.87 29-6 9.86-.78 19.53-1.95 29-3.5z" opacity="1"/>
  <path fill="#fef9d2" d="M4513.5 1696.5c3.48 4.95 6.48 10.28 9 16-.12.61-.46.94-1 1-2.9-5.48-5.57-11.14-8-17z" opacity=".584"/>
  <path fill="#ef956f" d="M3618.5 1693.5c0 .67.33 1 1 1-.73 2.01-1.56 4.01-2.5 6-.28-2.56.22-4.89 1.5-7z" opacity="1"/>
  <path fill="#f3aa63" d="M3611.5 1719.5h-1c.86-4.07 2.02-8.07 3.5-12 .1 4.26-.73 8.26-2.5 12z" opacity="1"/>
  <path fill="#fdea0d" d="M3036.5 1728.5c14.13-1.3 27.8.54 41 5.5 20.65 11.51 26.48 28.34 17.5 50.5-12.32 16.42-28.49 27.25-48.5 32.5-3.32.5-6.65.67-10 .5.05-3.07.55-6.07 1.5-9 4.17-11.52 7.84-23.18 11-35 4.19-15.47-1.31-25.3-16.5-29.5a456.21 456.21 0 01-34-9c12.72-2.65 25.38-4.81 38-6.5z" opacity="1"/>
  <path fill="#fef7bb" d="M4525.5 1724.5c2.44 4.3 4.1 8.97 5 14-1 .03-1.66-.47-2-1.5a85.126 85.126 0 01-3-12.5z" opacity=".5"/>
  <path fill="#fff6a7" d="M4530.5 1739.5c.84 1.88 1.17 3.88 1 6-1.65-1.9-1.98-3.9-1-6z" opacity=".008"/>
  <path fill="#fef49b" d="M4531.5 1747.5c1.37 3.46 2.37 7.13 3 11-1.15-.29-1.82-1.12-2-2.5-.72-2.79-1.05-5.63-1-8.5z" opacity=".71"/>
  <path fill="#fdea0d" d="M4187.5 1770.5c14.13-1.3 27.8.54 41 5.5 20.65 11.51 26.48 28.34 17.5 50.5-10.59 13.91-24.09 24.08-40.5 30.5a56.327 56.327 0 01-18 2.5c-.16-2.03 0-4.03.5-6a352.542 352.542 0 0013.5-47c.04-5.71-1.96-10.54-6-14.5a71.521 71.521 0 00-12-6 456.21 456.21 0 01-34-9c12.69-2.85 25.35-5.01 38-6.5z" opacity="1"/>
  <path fill="#fff389" d="M1925.5 1898.5c1.55.73 2.38 2.06 2.5 4 .5 2.65.66 5.31.5 8-1.29-3.81-2.29-7.81-3-12z" opacity=".924"/>
  <path fill="#fef7b9" d="M1928.5 1914.5c1-.03 1.66.47 2 1.5 1.47 4.08 2.47 8.25 3 12.5-2.44-4.3-4.1-8.97-5-14z" opacity=".4"/>
  <path fill="#fef9d2" d="M1937.5 1939.5a68.576 68.576 0 018 17c-3.48-4.95-6.48-10.28-9-16 .12-.61.46-.94 1-1z" opacity=".094"/>
  <path fill="#fef9d0" d="M1951.5 1967.5c1.85 1.53 2.85 3.53 3 6-1.47-1.65-2.8-3.48-4-5.5.23-.4.56-.57 1-.5z" opacity=".996"/>
  <path fill="#fef7b7" d="M4528.5 1974.5c.28 1.91-.05 3.58-1 5-1.18-1.84-.84-3.5 1-5z" opacity=".992"/>
  <path fill="#fef7bf" d="M1962.5 1984.5c2.09 1.08 3.42 2.75 4 5-2.09-1.08-3.42-2.75-4-5z" opacity=".408"/>
  <path fill="#fffad6" d="M1967.5 1990.5c1.41.47 2.07 1.47 2 3-1.41-.47-2.07-1.47-2-3z" opacity=".549"/>
  <path fill="#fef38c" d="M1972.5 1996.5c5.8 5.61 11.13 11.61 16 18-6.27-5.24-11.6-11.24-16-18z" opacity=".173"/>
  <path fill="#fff6ae" d="M4523.5 1996.5c-.53 5.28-2.2 9.95-5 14 1.01-4.36 2.17-8.69 3.5-13 .38-.56.88-.89 1.5-1z" opacity=".122"/>
  <path fill="#fffce6" d="M4518.5 2011.5c1.26 1.12.92 1.79-1 2-.17-.99.16-1.66 1-2z" opacity=".351"/>
  <path fill="#fff6b0" d="M4514.5 2022.5c-1.68 6.02-4.34 11.36-8 16 1.67-6 4.33-11.33 8-16z" opacity=".796"/>
  <path fill="#fef5a5" d="M2011.5 2032.5c-1.65-.16-2.99-.83-4-2 .81-1.15 1.81-1.15 3 0 .8.46 1.13 1.12 1 2z" opacity="1"/>
  <path fill="#fef6ad" d="M2019.5 2037.5c-1.65-.16-2.99-.83-4-2 .81-1.15 1.81-1.15 3 0 .8.46 1.13 1.12 1 2z" opacity=".396"/>
  <path fill="#fffbde" d="M4503.5 2044.5c-.25 2.17-1.25 3.84-3 5 .25-2.17 1.25-3.84 3-5z" opacity=".808"/>
  <path fill="#fff6b4" d="M4500.5 2049.5c-2.38 5.45-5.71 10.11-10 14 2.61-4.3 5.28-8.63 8-13 .46-.8 1.12-1.13 2-1z" opacity=".38"/>
  <path fill="#fff178" d="M2082.5 2063.5c-5.6-.73-10.93-2.07-16-4 .42-.62 1.08-.96 2-1 5.1.92 9.76 2.58 14 5z" opacity=".525"/>
  <path fill="#fefbdf" d="M4481.5 2075.5c-.58 2.25-1.91 3.92-4 5 .58-2.25 1.91-3.92 4-5z" opacity=".216"/>
  <path fill="#fef7b7" d="M4476.5 2081.5c-2.08 4.38-5.41 7.38-10 9 2.73-3.73 6.06-6.73 10-9z" opacity=".149"/>
  <path fill="#fef8c1" d="M4460.5 2096.5c-2.07 3.07-4.74 5.41-8 7 2.02-3.02 4.69-5.35 8-7z" opacity=".314"/>
  <path fill="#fff7b4" d="M4451.5 2104.5c-2.14 2.66-4.64 5-7.5 7-.38-.56-.88-.89-1.5-1 2.67-2.43 5.5-4.77 8.5-7 .4.23.57.56.5 1z" opacity=".431"/>
  <path fill="#fef8cb" d="M4441.5 2111.5c-.47 1.41-1.47 2.07-3 2 .47-1.41 1.47-2.07 3-2z" opacity=".502"/>
  <path fill="#fef7b8" d="M4425.5 2121.5c-.94 1.47-2.27 2.47-4 3 .26-2.06 1.43-3.4 3.5-4 .4.23.57.56.5 1z" opacity=".282"/>
  <path fill="#fef49b" d="M4405.5 2131.5a66.095 66.095 0 01-14 6c.08-1.25.74-2.08 2-2.5 3.77-2.06 7.77-3.22 12-3.5z" opacity=".071"/>
  <path fill="#fffad7" d="M4360.5 2144.5c1-1.33 2-1.33 3 0-.85 1.12-1.85 1.12-3 0z" opacity=".035"/>
  <path fill="#fdf6b4" d="M4331.5 2147.5c2.33-1.33 4.67-1.33 7 0-2.16.92-4.5.92-7 0z" opacity=".057"/>
</svg>
